<?xml version="1.0" encoding="UTF-8"?>
<svg id="Layer_2" data-name="Layer 2" xmlns="http://www.w3.org/2000/svg" viewBox="0 0 74.05 78.88">
  <defs>
    <style>
      .cls-1 {
        fill: #fff;
      }
    </style>
  </defs>
  <g id="Layer_1-2" data-name="Layer 1">
    <polygon class="cls-1" points="3.23 62.22 3.23 67.7 9.72 67.7 9.72 70.26 3.23 70.26 3.23 76.01 10.59 76.01 10.59 78.63 0 78.63 0 59.57 10.59 59.57 10.59 62.22 3.23 62.22"/>
    <path class="cls-1" d="M27.41,59.57h-7.19v19.09h7.19c5.01,0,9.1-4.09,9.1-9.1v-.89c0-5.01-4.09-9.1-9.1-9.1ZM33.31,69.92c0,3.35-2.74,6.08-6.08,6.08h-3.79v-13.79h3.79c3.35,0,6.08,2.74,6.08,6.08v1.63Z"/>
    <path class="cls-1" d="M61.89,73.06c-1.37,3.41-4.71,5.83-8.59,5.83h-.95c-5.09,0-9.26-4.17-9.26-9.26v-.95c0-5.09,4.17-9.25,9.26-9.25h.95c3.83,0,7.14,2.35,8.54,5.69h-4.03c-.75-1.7-2.45-2.89-4.42-2.89h-.99c-3.3,0-6.01,2.7-6.01,6.01v1.78c0,3.3,2.7,6.01,6.01,6.01h.99c1.99,0,3.71-1.22,4.45-2.95h4.06Z"/>
    <rect class="cls-1" x="70.88" y="59.57" width="3.17" height="19"/>
    <rect class="cls-1" x="11.24" y="31.62" width="13.57" height="2.49"/>
    <rect class="cls-1" x="11.24" y="23.45" width="13.57" height="2.49"/>
    <rect class="cls-1" x="11.24" y="15.28" width="13.57" height="2.48"/>
    <path class="cls-1" d="M74.05,0v50.3h-16.23c-6.92,0-13.2-2.83-17.76-7.39-.08-.08-.15-.15-.22-.23-.59-.6-1.15-1.23-1.68-1.89-3.43-4.3-5.49-9.74-5.49-15.64s2.23-11.78,5.93-16.16c.53-.64,1.09-1.25,1.69-1.82C44.83,2.74,51.01,0,57.82,0h4.78v2.44h-4.42c-6.27,0-11.98,2.55-16.13,6.67-.6.6-1.17,1.23-1.7,1.89-3.2,3.94-5.11,8.94-5.11,14.38,0,5.11,1.69,9.85,4.55,13.67.51.69,1.06,1.35,1.66,1.97.17.19.35.38.53.56,4.16,4.16,9.9,6.74,16.2,6.74h13.47V0h2.4Z"/>
    <rect class="cls-1" x="11.24" y="15.28" width="13.57" height="2.48"/>
    <rect class="cls-1" x="11.24" y="23.45" width="13.57" height="2.49"/>
    <rect class="cls-1" x="11.24" y="31.62" width="13.57" height="2.49"/>
    <path class="cls-1" d="M35.24,25.38c0,5.11,1.69,9.85,4.55,13.67-.42.5-.87.99-1.33,1.45-.1.1-.2.19-.3.29-3.43-4.3-5.49-9.74-5.49-15.64s2.23-11.78,5.93-16.16c.62.63,1.21,1.3,1.75,2.01-3.2,3.94-5.11,8.94-5.11,14.38Z"/>
    <path class="cls-1" d="M42.05,9.11c-.55-.68-1.14-1.33-1.76-1.94C35.82,2.74,29.68,0,22.92,0H0v49.43h22.92c6.53,0,12.49-2.57,16.92-6.75.19-.16.36-.33.54-.51.37-.37.73-.75,1.07-1.15,3.85-4.37,6.19-10.08,6.19-16.31,0-5.9-2.1-11.34-5.59-15.6ZM22.64,47.09H2.59V2.26h20.05c6.23,0,11.89,2.58,15.96,6.73-3.7,4.38-5.93,10.03-5.93,16.16s2.06,11.34,5.49,15.64c-4.03,3.9-9.51,6.3-15.52,6.3ZM39.79,39.05c-2.86-3.82-4.55-8.56-4.55-13.67,0-5.44,1.91-10.44,5.11-14.38,2.95,3.79,4.7,8.54,4.7,13.68,0,5.46-1.98,10.47-5.26,14.37ZM11.24,34.11h13.57v-2.49h-13.57v2.49ZM11.24,25.94h13.57v-2.49h-13.57v2.49ZM11.24,17.76h13.57v-2.48h-13.57v2.48Z"/>
  </g>
</svg>